# This file uses centimeters as units for non-parametric coordinates.

mtllib 1.mtl
g default
v -14.830144 3.275306 -5.503644
v -14.830182 3.506546 -5.502754
v -14.924542 3.276103 -5.714739
v -14.924581 3.507343 -5.713848
v -10.643082 -3.403451 -5.358801
v -15.427193 -3.448162 -12.153015
v -13.068160 0.933525 -12.153015
v 0.251342 -1.368550 -12.159431
v -3.300926 -5.105113 -12.278064
v -2.914764 -5.060402 -5.287403
v 1.083877 -1.628328 -5.287403
v -14.877343 3.275704 -5.609191
v -14.877381 3.506944 -5.608301
v -15.271611 -3.425807 -7.702854
v -2.151444 -5.082758 -8.789965
v 1.812293 -0.842342 -8.723778
v -14.830154 3.334057 -5.503418
v -14.924552 3.334854 -5.714512
v -13.774797 -0.172085 -12.153015
v -1.748380 -3.472019 -12.226214
v -1.237071 -3.620421 -5.287403
v -0.727246 -3.559148 -8.766183
v -14.877353 3.334455 -5.608965
v -14.830168 3.420301 -5.503086
v 0.347561 -2.409316 -8.748236
v -14.877367 3.420700 -5.608633
v -14.924566 3.421098 -5.714180
v -0.710263 -2.380045 -12.191545
v 0.070430 -2.498180 -5.287403
v -14.924547 3.305479 -5.714625
v -14.524312 -1.810123 -12.153015
v -2.849666 -4.630440 -12.262993
v -2.406799 -4.624410 -5.287403
v -14.830149 3.304681 -5.503531
v -1.772725 -4.677601 -8.783641
v -14.877348 3.305080 -5.609078
v -14.900981 3.507143 -5.661075
v -15.710428 -3.436984 -10.454462
v -2.726186 -5.093935 -10.534014
v -14.900943 3.275904 -5.661965
v 1.031817 -1.105446 -10.441605
v -1.237813 -3.515584 -10.496199
v -14.900952 3.334655 -5.661739
v -0.181352 -2.394680 -10.469891
v -14.900967 3.420899 -5.661407
v -14.900948 3.305279 -5.661852
v -2.311195 -4.654021 -10.523317
v -14.853744 3.275505 -5.556418
v 1.448085 -1.235335 -6.997055
v -14.853782 3.506745 -5.555527
v -14.539086 -3.414629 -5.602793
v -2.533105 -5.071580 -7.045915
v -14.853753 3.334256 -5.556191
v -0.982159 -3.589784 -7.027409
v -14.853767 3.420500 -5.555860
v 0.208995 -2.453748 -7.013280
v -2.089763 -4.651006 -7.040750
v -14.853748 3.304881 -5.556304
v -4.461291 -0.568857 -12.156636
v -14.821081 3.487379 -5.758556
vt 0.561084 0.615116
vt 0.564317 0.615116
vt 0.564317 0.617283
vt 0.561084 0.617283
vt 0.552409 0.000290
vt 0.555648 0.000463
vt 0.447998 0.257322
vt 1.000000 0.361050
vt 0.977522 0.466214
vt 0.957555 0.481421
vt 0.820348 -0.000000
vt 0.823510 0.000676
vt 0.001991 0.020539
vt 0.085923 0.379768
vt 0.019707 0.421298
vt -0.000000 0.021422
vt 0.568720 0.605876
vt 0.566748 0.604976
vt 0.067951 0.685814
vt 0.064203 0.751219
vt 0.000000 0.727783
vt 0.002835 0.677393
vt 0.219499 0.297791
vt 0.286247 0.256978
vt 0.271511 0.530044
vt 0.205039 0.545370
vt 0.555648 0.019219
vt 0.622740 0.009612
vt 0.431796 0.495394
vt 0.755061 0.028947
vt 0.689824 -0.000000
vt 0.152801 0.338583
vt 0.140317 0.559439
vt 0.077742 0.544986
vt 0.199582 0.683153
vt 0.196080 0.749745
vt 0.128454 0.774356
vt 0.132843 0.693726
vt 0.572651 0.607700
vt 0.570686 0.606788
vt 0.005966 0.018755
vt 0.003978 0.019647
vt 0.561084 0.610781
vt 0.564317 0.610781
vt 0.564317 0.612948
vt 0.561084 0.612948
vt 0.812759 0.538240
vt 0.818305 0.235478
vt 0.574617 0.608613
vt 0.576374 0.604697
vt 0.556749 0.610781
vt 0.557850 0.610781
vt 0.557850 0.612948
vt 0.556749 0.612948
vt 0.204515 0.567808
vt 0.202380 0.625648
vt 0.136077 0.635154
vt 0.139218 0.579332
vt 0.348531 0.260679
vt 0.410038 0.264170
vt 0.075814 0.567583
vt 0.071692 0.624281
vt 0.006777 0.612381
vt 0.011065 0.554320
vt 0.826672 0.001352
vt 0.827749 0.001582
vt 0.911577 0.516439
vt 0.860183 0.555583
vt 0.548066 0.000059
vt 0.549170 0.000118
vt 0.556749 0.615116
vt 0.557850 0.615116
vt 0.557850 0.617283
vt 0.556749 0.617283
vt 0.820348 0.585923
vt 0.555648 0.615116
vt 0.555648 0.617283
vt 0.546963 0.000000
vt 0.287025 0.257189
vt 0.828826 0.001812
vt 0.013213 0.529255
vt 0.555648 0.610781
vt 0.555648 0.612948
vt 0.271080 0.554625
vt 0.269220 0.615011
vt 0.266510 0.671916
vt 0.007953 0.017860
vt 0.263575 0.724606
vt 0.820348 0.057896
vt 0.555648 0.608613
vt 0.556749 0.608613
vt 0.557850 0.608613
vt 0.561084 0.608613
vt 0.564317 0.608613
vt 0.404344 0.671360
vt 0.368387 0.633104
vt 0.329569 0.591805
vt 0.288387 0.547994
vn -0.912892 -0.001700 0.408197
vn -0.912892 -0.001700 0.408197
vn -0.912892 -0.001700 0.408197
vn -0.912892 -0.001700 0.408197
vn -0.587425 0.681329 -0.436719
vn -0.435599 0.785498 -0.439599
vn -0.634153 0.640953 -0.432468
vn -0.075298 -0.066098 0.994968
vn 0.002300 -0.204301 0.978905
vn 0.031400 -0.003200 0.999502
vn 0.009000 0.101401 0.994805
vn -0.091902 -0.035901 0.995121
vn -0.029601 -0.062301 0.997618
vn -0.001100 0.015800 0.999875
vn -0.016599 0.001100 0.999862
vn -0.023500 -0.029200 0.999297
vn -0.075399 -0.018100 0.996989
vn -0.075399 -0.018100 0.996989
vn -0.075399 -0.018100 0.996989
vn -0.075399 -0.018100 0.996989
vn 0.211892 0.955466 0.205393
vn 0.214003 0.955315 0.203903
vn 0.189508 0.949438 0.250310
vn 0.187710 0.949952 0.249714
vn 0.694119 -0.718919 0.036801
vn 0.702289 -0.711789 0.012100
vn 0.679836 -0.733339 0.006100
vn 0.674487 -0.737485 0.034399
vn 0.000100 -0.999984 0.005700
vn 0.000100 -0.999979 0.006500
vn 0.000100 -0.999979 0.006500
vn 0.000200 -0.999984 0.005600
vn -0.000600 0.009600 -0.999954
vn 0.000700 0.017099 -0.999854
vn 0.001700 0.022801 -0.999739
vn 0.000700 0.023800 -0.999717
vn 0.170895 0.983273 0.062998
vn 0.154200 0.977401 -0.144600
vn 0.161093 0.986855 0.012899
vn 0.198808 0.968537 0.149706
vn 0.000600 -0.999981 0.006100
vn 0.000400 -0.999986 0.005300
vn 0.000400 -0.999986 0.005300
vn 0.000600 -0.999972 0.007400
vn 0.711899 -0.665499 -0.224300
vn 0.712465 -0.665267 -0.223189
vn 0.720581 -0.686282 -0.098897
vn 0.719401 -0.688301 -0.093300
vn -0.995101 0.071000 0.068800
vn -0.986717 0.153803 -0.052301
vn -0.972776 -0.016000 0.231194
vn -0.964195 -0.026200 0.263899
vn -0.912892 -0.001700 0.408197
vn -0.912892 -0.001700 0.408197
vn -0.912892 -0.001700 0.408197
vn -0.912892 -0.001700 0.408197
vn 0.150407 0.968243 -0.199709
vn 0.090701 0.972015 -0.216703
vn 0.117800 0.987396 -0.105700
vn 0.104504 0.985441 -0.134106
vn -0.912892 -0.001700 0.408197
vn -0.912892 -0.001700 0.408197
vn -0.912892 -0.001700 0.408197
vn -0.912892 -0.001700 0.408197
vn 0.710982 -0.664984 -0.228694
vn 0.711409 -0.665209 -0.226703
vn 0.718983 -0.691484 -0.070098
vn 0.719397 -0.692797 -0.050000
vn -0.006600 0.006900 -0.999954
vn -0.004400 0.009800 -0.999942
vn -0.003000 0.026401 -0.999647
vn -0.008800 0.025801 -0.999628
vn 0.684196 -0.717996 0.127899
vn 0.688128 -0.720330 0.087204
vn 0.668401 -0.738801 0.086100
vn 0.664714 -0.736515 0.125303
vn 0.046901 0.146304 0.988127
vn 0.009000 0.101401 0.994805
vn 0.031400 -0.003200 0.999502
vn 0.013400 0.078601 0.996816
vn 0.046901 0.146304 0.988127
vn 0.013400 0.078601 0.996816
vn -0.016599 0.001100 0.999862
vn -0.001100 0.015800 0.999875
vn -0.839398 0.398599 -0.369499
vn -0.810722 0.438912 -0.387410
vn -0.827793 0.416396 -0.375997
vn -0.822121 0.420211 -0.384110
vn -0.912892 -0.001700 0.408197
vn -0.912892 -0.001700 0.408197
vn -0.912892 -0.001700 0.408197
vn -0.912892 -0.001700 0.408197
vn -0.912892 -0.001700 0.408197
vn -0.912892 -0.001700 0.408197
vn -0.912892 -0.001700 0.408197
vn -0.912892 -0.001700 0.408197
vn 0.711409 -0.665209 -0.226703
vn 0.711899 -0.665499 -0.224300
vn 0.719401 -0.688301 -0.093300
vn 0.718983 -0.691484 -0.070098
vn -0.004400 0.009800 -0.999942
vn -0.002200 0.010400 -0.999943
vn 0.000700 0.023800 -0.999717
vn -0.003000 0.026401 -0.999647
vn 0.688128 -0.720330 0.087204
vn 0.694119 -0.718919 0.036801
vn 0.674487 -0.737485 0.034399
vn 0.668401 -0.738801 0.086100
vn -0.810722 0.438912 -0.387410
vn -0.587425 0.681329 -0.436719
vn -0.634153 0.640953 -0.432468
vn -0.827793 0.416396 -0.375997
vn -0.912892 -0.001700 0.408197
vn -0.912892 -0.001700 0.408197
vn -0.912892 -0.001700 0.408197
vn -0.912892 -0.001700 0.408197
vn -0.912892 -0.001700 0.408197
vn -0.912892 -0.001700 0.408197
vn -0.912892 -0.001700 0.408197
vn -0.912892 -0.001700 0.408197
vn -0.807589 0.437294 -0.395695
vn -0.839398 0.398599 -0.369499
vn -0.822121 0.420211 -0.384110
vn -0.807589 0.437294 -0.395695
vn 0.679512 -0.719513 0.143403
vn 0.684196 -0.717996 0.127899
vn 0.664714 -0.736515 0.125303
vn 0.662195 -0.736194 0.139699
vn -0.014099 0.022399 -0.999650
vn -0.007300 0.005400 -0.999959
vn -0.006600 0.006900 -0.999954
vn -0.008800 0.025801 -0.999628
vn 0.710704 -0.665003 -0.229501
vn 0.710982 -0.664984 -0.228694
vn 0.719397 -0.692797 -0.050000
vn 0.718999 -0.693399 -0.047300
vn -0.912892 -0.001700 0.408197
vn -0.912892 -0.001700 0.408197
vn -0.912892 -0.001700 0.408197
vn -0.912892 -0.001700 0.408197
vn 0.709931 -0.665929 -0.229210
vn 0.710096 -0.665997 -0.228499
vn 0.710982 -0.664984 -0.228694
vn 0.710704 -0.665003 -0.229501
vn -0.912892 -0.001700 0.408197
vn -0.912892 -0.001700 0.408197
vn -0.912892 -0.001700 0.408197
vn -0.912892 -0.001700 0.408197
vn -0.912892 -0.001700 0.408197
vn -0.912892 -0.001700 0.408197
vn -0.912892 -0.001700 0.408197
vn -0.912892 -0.001700 0.408197
vn 0.710410 -0.666310 -0.226603
vn 0.711013 -0.666512 -0.224104
vn 0.711899 -0.665499 -0.224300
vn 0.711409 -0.665209 -0.226703
vn -0.912892 -0.001700 0.408197
vn -0.912892 -0.001700 0.408197
vn -0.912892 -0.001700 0.408197
vn -0.912892 -0.001700 0.408197
vn 0.710096 -0.665997 -0.228499
vn 0.710410 -0.666310 -0.226603
vn 0.711409 -0.665209 -0.226703
vn 0.710982 -0.664984 -0.228694
vn -0.965840 0.215109 -0.144506
vn -0.965840 0.215109 -0.144506
vn -0.986717 0.153803 -0.052301
vn -0.995101 0.071000 0.068800
vn 0.104504 0.985441 -0.134106
vn 0.117800 0.987396 -0.105700
vn 0.161093 0.986855 0.012899
vn 0.154200 0.977401 -0.144600
vn 0.157907 0.970441 -0.182508
vn 0.711013 -0.666512 -0.224104
vn 0.711385 -0.666586 -0.222695
vn 0.712465 -0.665267 -0.223189
vn 0.711899 -0.665499 -0.224300
vn 0.000400 -0.999986 0.005300
vn 0.000100 -0.999984 0.005700
vn 0.000200 -0.999984 0.005600
vn 0.000400 -0.999986 0.005300
vn -0.912892 -0.001700 0.408197
vn -0.912892 -0.001700 0.408197
vn -0.912892 -0.001700 0.408197
vn -0.912892 -0.001700 0.408197
vn -0.912892 -0.001700 0.408197
vn -0.912892 -0.001700 0.408197
vn -0.912892 -0.001700 0.408197
vn -0.912892 -0.001700 0.408197
vn 0.718999 -0.693399 -0.047300
vn 0.719397 -0.692797 -0.050000
vn 0.684196 -0.717996 0.127899
vn 0.679512 -0.719513 0.143403
vn 0.718983 -0.691484 -0.070098
vn 0.719401 -0.688301 -0.093300
vn 0.694119 -0.718919 0.036801
vn 0.688128 -0.720330 0.087204
vn -0.912892 -0.001700 0.408197
vn -0.912892 -0.001700 0.408197
vn -0.912892 -0.001700 0.408197
vn -0.912892 -0.001700 0.408197
vn 0.719397 -0.692797 -0.050000
vn 0.718983 -0.691484 -0.070098
vn 0.688128 -0.720330 0.087204
vn 0.684196 -0.717996 0.127899
vn -0.912892 -0.001700 0.408197
vn -0.912892 -0.001700 0.408197
vn -0.912892 -0.001700 0.408197
vn -0.912892 -0.001700 0.408197
vn -0.912892 -0.001700 0.408197
vn -0.912892 -0.001700 0.408197
vn -0.912892 -0.001700 0.408197
vn -0.912892 -0.001700 0.408197
vn 0.000700 -0.999951 0.009900
vn 0.000600 -0.999981 0.006100
vn 0.000600 -0.999972 0.007400
vn 0.000700 -0.999951 0.009900
vn 0.211892 0.955466 0.205393
vn 0.187710 0.949952 0.249714
vn 0.170895 0.983273 0.062998
vn 0.198808 0.968537 0.149706
vn 0.719401 -0.688301 -0.093300
vn 0.720581 -0.686282 -0.098897
vn 0.702289 -0.711789 0.012100
vn 0.694119 -0.718919 0.036801
vn -0.964195 -0.026200 0.263899
vn -0.972776 -0.016000 0.231194
vn -0.942377 -0.047299 0.331192
vn -0.942377 -0.047299 0.331192
vn 0.104504 0.985441 -0.134106
vn 0.157907 0.970441 -0.182508
vn 0.150407 0.968243 -0.199709
vn 0.157907 0.970441 -0.182508
vn 0.150407 0.968243 -0.199709
s off
g _Mesh
usemtl initialShadingGroup
f 45/1/1 37/2/2 4/3/3 27/4/4
f 27/5/5 4/6/6 7/7/7
f 5/8/8 10/9/9 33/10/10 34/66/11 1/80/12
f 2/11/13 24/12/14 29/68/15 11/75/16
f 48/13/17 51/14/18 5/15/19 1/16/20
f 50/17/21 2/18/22 11/27/23 49/28/24
f 56/19/25 49/20/26 11/21/27 29/22/28
f 38/23/29 6/24/30 9/25/31 39/26/32
f 7/7/33 59/29/34 8/95/35 28/96/36
f 16/31/37 41/30/38 37/39/39 13/40/40
f 51/14/41 14/32/42 15/33/43 52/34/44
f 44/35/45 41/36/46 16/37/47 25/38/48
f 40/41/49 38/23/50 14/32/51 12/42/52
f 55/43/53 50/44/54 13/45/55 26/46/56
f 59/48/57 7/47/58 4/49/59 60/50/60
f 58/51/61 53/52/62 23/53/63 36/54/64
f 47/55/65 42/56/66 22/57/67 35/58/68
f 31/59/69 19/60/70 20/97/71 32/98/72
f 57/61/73 54/62/74 21/63/75 33/64/76
f 17/65/77 34/66/78 33/10/79 21/67/80
f 17/65/81 21/67/82 29/68/83 24/12/84
f 30/69/85 18/70/86 19/60/87 31/59/88
f 46/71/89 43/72/90 18/73/91 30/74/92
f 53/52/93 55/43/94 26/46/95 23/53/96
f 42/56/97 44/35/98 25/38/99 22/57/100
f 19/60/101 7/7/102 28/96/103 20/97/104
f 54/62/105 56/19/106 29/22/107 21/63/108
f 18/70/109 27/5/110 7/7/111 19/60/112
f 43/72/113 45/1/114 27/4/115 18/73/116
f 40/76/117 46/71/118 30/74/119 3/77/120
f 3/78/121 30/69/122 31/59/123 6/79/124
f 52/34/125 57/61/126 33/64/127 10/81/128
f 9/25/129 6/79/130 31/59/131 32/98/132
f 39/26/133 47/55/134 35/58/135 15/33/136
f 48/82/137 58/51/138 36/54/139 12/83/140
f 9/25/141 32/84/142 47/55/143 39/26/144
f 12/83/145 36/54/146 46/71/147 40/76/148
f 23/53/149 26/46/150 45/1/151 43/72/152
f 20/85/153 28/86/154 44/35/155 42/56/156
f 36/54/157 23/53/158 43/72/159 46/71/160
f 32/84/161 20/85/162 42/56/163 47/55/164
f 3/87/165 6/24/166 38/23/167 40/41/168
f 60/50/169 4/49/170 37/39/171 41/30/172 8/89/173
f 28/86/174 8/88/175 41/36/176 44/35/177
f 14/32/178 38/23/179 39/26/180 15/33/181
f 26/46/182 13/45/183 37/2/184 45/1/185
f 1/90/186 34/91/187 58/51/188 48/82/189
f 15/33/190 35/58/191 57/61/192 52/34/193
f 22/57/194 25/38/195 56/19/196 54/62/197
f 17/92/198 24/93/199 55/43/200 53/52/201
f 35/58/202 22/57/203 54/62/204 57/61/205
f 34/91/206 17/92/207 53/52/208 58/51/209
f 24/93/210 2/94/211 50/44/212 55/43/213
f 5/15/214 51/14/215 52/34/216 10/81/217
f 50/17/218 49/28/219 16/31/220 13/40/221
f 25/38/222 16/37/223 49/20/224 56/19/225
f 12/42/226 14/32/227 51/14/228 48/13/229
f 60/50/230 8/89/231 59/48/232
