# This file uses centimeters as units for non-parametric coordinates.

mtllib 1.mtl
g default
v -14.830144 3.275306 -5.503644
v -14.830182 3.506546 -5.502754
v -14.924542 3.276103 -5.714739
v -14.924581 3.507343 -5.713848
v -14.539086 -3.414629 -5.602793
v -15.427193 -3.448162 -12.153015
v -13.068160 -1.370595 -12.153015
v 1.001584 -4.176373 -12.159431
v -2.514154 -4.181015 -12.278064
v -2.127992 -4.136304 -5.287403
v 1.834119 -4.436152 -5.287403
v -14.877343 3.275704 -5.609191
v -14.877381 3.506944 -5.608301
v -15.271611 -3.425807 -7.702854
v -1.364672 -4.158660 -8.789965
v 2.562535 -3.650165 -8.723778
v -14.830168 3.420301 -5.503086
v -14.877367 3.420700 -5.608633
v -14.924566 3.421098 -5.714180
v -14.924547 3.305479 -5.714625
v -14.524312 -1.810123 -12.153015
v -14.830149 3.304681 -5.503531
v -14.877348 3.305080 -5.609078
v -14.900981 3.507143 -5.661075
v -15.710428 -3.436984 -10.454462
v -1.939414 -4.169837 -10.534014
v -14.900943 3.275904 -5.661965
v 1.782058 -3.913269 -10.441605
v -14.900967 3.420899 -5.661407
v -14.900948 3.305279 -5.661852
v -14.853744 3.275505 -5.556418
v 2.198327 -4.043159 -6.997055
v -14.853782 3.506745 -5.555527
v -1.746333 -4.147482 -7.045915
v -14.853767 3.420500 -5.555860
v -14.853748 3.304881 -5.556304
v -3.711049 -2.870673 -12.156636
v -14.821081 3.487379 -5.758556
vt 0.561084 0.615116
vt 0.564317 0.615116
vt 0.564317 0.617283
vt 0.561084 0.617283
vt 0.552409 0.000290
vt 0.555648 0.000463
vt 0.447998 0.257322
vt 1.040486 0.337279
vt 0.973545 0.489871
vt 0.820348 -0.000000
vt 0.823510 0.000676
vt 0.001991 0.020539
vt 0.075671 0.381258
vt -0.000000 0.021422
vt 0.568720 0.605876
vt 0.566748 0.604976
vt 0.064203 0.751219
vt 0.000000 0.727783
vt 0.219499 0.297791
vt 0.286247 0.256978
vt 0.269063 0.531366
vt 0.204767 0.545700
vt 0.555648 0.019219
vt 0.622740 0.009612
vt 0.431796 0.495394
vt 0.755061 0.028947
vt 0.689824 -0.000000
vt 0.152801 0.338583
vt 0.140056 0.558619
vt 0.078427 0.545059
vt 0.196080 0.749745
vt 0.128454 0.774356
vt 0.572651 0.607700
vt 0.570686 0.606788
vt 0.005966 0.018755
vt 0.003978 0.019647
vt 0.561084 0.610781
vt 0.564317 0.610781
vt 0.564317 0.612948
vt 0.561084 0.612948
vt 0.812759 0.538240
vt 0.818305 0.235478
vt 0.574617 0.608613
vt 0.576374 0.604697
vt 0.556749 0.610781
vt 0.556749 0.612948
vt 0.348531 0.260679
vt 0.015486 0.530536
vt 0.827749 0.001582
vt 0.548066 0.000059
vt 0.556749 0.615116
vt 0.556749 0.617283
vt 0.820348 0.585923
vt 0.555648 0.615116
vt 0.555648 0.617283
vt 0.546963 0.000000
vt 0.287025 0.257189
vt 0.828826 0.001812
vt 0.555648 0.610781
vt 0.555648 0.612948
vt 0.007953 0.017860
vt 0.263575 0.724606
vt 0.820348 0.057896
vt 0.555648 0.608613
vt 0.556749 0.608613
vt 0.561084 0.608613
vt 0.564317 0.608613
vt 0.404344 0.671360
vn -0.912892 -0.001700 0.408197
vn -0.912892 -0.001700 0.408197
vn -0.912892 -0.001700 0.408197
vn -0.912892 -0.001700 0.408197
vn -0.587425 0.681329 -0.436719
vn -0.435599 0.785498 -0.439599
vn -0.634153 0.640953 -0.432468
vn -0.075298 -0.066098 0.994968
vn 0.031400 -0.003200 0.999502
vn 0.009000 0.101401 0.994805
vn -0.091902 -0.035901 0.995121
vn -0.075399 -0.018100 0.996989
vn -0.075399 -0.018100 0.996989
vn -0.075399 -0.018100 0.996989
vn 0.211892 0.955466 0.205393
vn 0.214003 0.955315 0.203903
vn 0.189508 0.949438 0.250310
vn 0.187710 0.949952 0.249714
vn 0.702289 -0.711789 0.012100
vn 0.679836 -0.733339 0.006100
vn 0.664714 -0.736515 0.125303
vn 0.684196 -0.717996 0.127899
vn 0.000100 -0.999984 0.005700
vn 0.000100 -0.999979 0.006500
vn 0.000100 -0.999979 0.006500
vn 0.000200 -0.999984 0.005600
vn -0.000600 0.009600 -0.999954
vn 0.000700 0.017099 -0.999854
vn 0.001700 0.022801 -0.999739
vn -0.008800 0.025801 -0.999628
vn -0.006600 0.006900 -0.999954
vn 0.170895 0.983273 0.062998
vn 0.154200 0.977401 -0.144600
vn 0.161093 0.986855 0.012899
vn 0.198808 0.968537 0.149706
vn 0.000600 -0.999981 0.006100
vn 0.000400 -0.999986 0.005300
vn 0.000400 -0.999986 0.005300
vn 0.000600 -0.999972 0.007400
vn 0.712465 -0.665267 -0.223189
vn 0.720581 -0.686282 -0.098897
vn 0.719397 -0.692797 -0.050000
vn 0.710982 -0.664984 -0.228694
vn -0.995101 0.071000 0.068800
vn -0.986717 0.153803 -0.052301
vn -0.972776 -0.016000 0.231194
vn -0.964195 -0.026200 0.263899
vn -0.912892 -0.001700 0.408197
vn -0.912892 -0.001700 0.408197
vn -0.912892 -0.001700 0.408197
vn -0.912892 -0.001700 0.408197
vn 0.150407 0.968243 -0.199709
vn 0.090701 0.972015 -0.216703
vn 0.117800 0.987396 -0.105700
vn 0.104504 0.985441 -0.134106
vn -0.912892 -0.001700 0.408197
vn -0.912892 -0.001700 0.408197
vn -0.912892 -0.001700 0.408197
vn -0.912892 -0.001700 0.408197
vn -0.001100 0.015800 0.999875
vn 0.009000 0.101401 0.994805
vn 0.031400 -0.003200 0.999502
vn -0.023500 -0.029200 0.999297
vn -0.029601 -0.062301 0.997618
vn -0.822121 0.420211 -0.384110
vn -0.839398 0.398599 -0.369499
vn -0.587425 0.681329 -0.436719
vn -0.634153 0.640953 -0.432468
vn -0.912892 -0.001700 0.408197
vn -0.912892 -0.001700 0.408197
vn -0.912892 -0.001700 0.408197
vn -0.912892 -0.001700 0.408197
vn -0.912892 -0.001700 0.408197
vn -0.912892 -0.001700 0.408197
vn -0.912892 -0.001700 0.408197
vn -0.912892 -0.001700 0.408197
vn -0.807589 0.437294 -0.395695
vn -0.839398 0.398599 -0.369499
vn -0.822121 0.420211 -0.384110
vn -0.807589 0.437294 -0.395695
vn -0.014099 0.022399 -0.999650
vn -0.007300 0.005400 -0.999959
vn -0.006600 0.006900 -0.999954
vn -0.912892 -0.001700 0.408197
vn -0.912892 -0.001700 0.408197
vn -0.912892 -0.001700 0.408197
vn -0.912892 -0.001700 0.408197
vn -0.912892 -0.001700 0.408197
vn -0.912892 -0.001700 0.408197
vn -0.912892 -0.001700 0.408197
vn -0.912892 -0.001700 0.408197
vn -0.912892 -0.001700 0.408197
vn -0.912892 -0.001700 0.408197
vn -0.912892 -0.001700 0.408197
vn -0.912892 -0.001700 0.408197
vn 0.712465 -0.665267 -0.223189
vn 0.710982 -0.664984 -0.228694
vn 0.710096 -0.665997 -0.228499
vn 0.711385 -0.666586 -0.222695
vn -0.965840 0.215109 -0.144506
vn -0.965840 0.215109 -0.144506
vn -0.986717 0.153803 -0.052301
vn -0.995101 0.071000 0.068800
vn 0.104504 0.985441 -0.134106
vn 0.117800 0.987396 -0.105700
vn 0.161093 0.986855 0.012899
vn 0.154200 0.977401 -0.144600
vn 0.157907 0.970441 -0.182508
vn 0.000400 -0.999986 0.005300
vn 0.000100 -0.999984 0.005700
vn 0.000200 -0.999984 0.005600
vn 0.000400 -0.999986 0.005300
vn -0.912892 -0.001700 0.408197
vn -0.912892 -0.001700 0.408197
vn -0.912892 -0.001700 0.408197
vn -0.912892 -0.001700 0.408197
vn -0.912892 -0.001700 0.408197
vn -0.912892 -0.001700 0.408197
vn -0.912892 -0.001700 0.408197
vn -0.912892 -0.001700 0.408197
vn 0.702289 -0.711789 0.012100
vn 0.684196 -0.717996 0.127899
vn 0.719397 -0.692797 -0.050000
vn 0.720581 -0.686282 -0.098897
vn -0.912892 -0.001700 0.408197
vn -0.912892 -0.001700 0.408197
vn -0.912892 -0.001700 0.408197
vn -0.912892 -0.001700 0.408197
vn -0.912892 -0.001700 0.408197
vn -0.912892 -0.001700 0.408197
vn -0.912892 -0.001700 0.408197
vn -0.912892 -0.001700 0.408197
vn 0.000600 -0.999981 0.006100
vn 0.000600 -0.999972 0.007400
vn 0.000700 -0.999951 0.009900
vn 0.211892 0.955466 0.205393
vn 0.187710 0.949952 0.249714
vn 0.170895 0.983273 0.062998
vn 0.198808 0.968537 0.149706
vn -0.964195 -0.026200 0.263899
vn -0.972776 -0.016000 0.231194
vn -0.942377 -0.047299 0.331192
vn -0.942377 -0.047299 0.331192
vn 0.104504 0.985441 -0.134106
vn 0.157907 0.970441 -0.182508
vn 0.150407 0.968243 -0.199709
vn 0.157907 0.970441 -0.182508
vn 0.150407 0.968243 -0.199709
s off
g _Mesh
usemtl initialShadingGroup
f 29/1/1 24/2/2 4/3/3 19/4/4
f 19/5/5 4/6/6 7/7/7
f 5/8/8 10/9/9 22/49/10 1/58/11
f 31/12/12 5/13/13 1/14/14
f 33/15/15 2/16/16 11/23/17 32/24/18
f 32/17/19 11/18/20 10/48/21 34/30/22
f 25/19/23 6/20/24 9/21/25 26/22/26
f 7/7/27 37/25/28 8/68/29 9/21/30 21/47/31
f 16/27/32 28/26/33 24/33/34 13/34/35
f 5/13/36 14/28/37 15/29/38 34/30/39
f 28/31/40 16/32/41 15/29/42 26/22/43
f 27/35/44 25/19/45 14/28/46 12/36/47
f 35/37/48 33/38/49 13/39/50 18/40/51
f 37/42/52 7/41/53 4/43/54 38/44/55
f 23/46/56 36/45/57 35/37/58 18/40/59
f 17/11/60 22/49/61 10/9/62 11/53/63 2/10/64
f 21/47/65 20/50/66 19/5/67 7/7/68
f 20/52/69 30/51/70 29/1/71 19/4/72
f 27/54/73 30/51/74 20/52/75 3/55/76
f 3/56/77 20/50/78 21/47/79 6/57/80
f 9/21/81 6/57/82 21/47/83
f 31/59/84 36/45/85 23/46/86 12/60/87
f 12/60/88 23/46/89 30/51/90 27/54/91
f 23/46/92 18/40/93 29/1/94 30/51/95
f 28/31/96 26/22/97 9/21/98 8/62/99
f 3/61/100 6/20/101 25/19/102 27/35/103
f 38/44/104 4/43/105 24/33/106 28/26/107 8/63/108
f 14/28/109 25/19/110 26/22/111 15/29/112
f 18/40/113 13/39/114 24/2/115 29/1/116
f 1/64/117 22/65/118 36/45/119 31/59/120
f 32/17/121 34/30/122 15/29/123 16/32/124
f 22/65/125 17/66/126 35/37/127 36/45/128
f 17/66/129 2/67/130 33/38/131 35/37/132
f 5/13/133 34/30/134 10/48/135
f 33/15/136 32/24/137 16/27/138 13/34/139
f 12/36/140 14/28/141 5/13/142 31/12/143
f 38/44/144 8/63/145 37/42/146
