# This file uses centimeters as units for non-parametric coordinates.

mtllib 1.mtl
g default
v -14.830144 3.275306 -5.503644
v -14.830182 3.506546 -5.502754
v -14.924542 3.276103 -5.714739
v -14.924581 3.507343 -5.713848
v -10.643082 -3.403451 -5.358801
v -15.427193 -3.448162 -12.153015
v -11.163641 1.903676 -12.153015
v 6.122962 -0.658794 -13.255492
v -3.300926 -3.448162 -12.278064
v -2.914764 -3.403451 -5.287403
v 6.955497 -0.918572 -6.383464
v -14.877343 3.275704 -5.609191
v -14.877381 3.506944 -5.608301
v -15.271611 -3.425807 -7.702854
v -2.151444 -3.425807 -8.789965
v 7.683913 -0.132586 -9.819839
v -14.900981 3.507143 -5.661075
v -15.710428 -3.436984 -10.454462
v -2.726186 -3.436984 -10.534014
v -14.900943 3.275904 -5.661965
v 6.903437 -0.395690 -11.537665
v -14.853744 3.275505 -5.556418
v 7.319705 -0.525579 -8.093116
v -14.853782 3.506745 -5.555527
v -14.539086 -3.414629 -5.602793
v -2.533105 -3.414629 -7.045915
v -1.428708 0.460624 -12.773874
vt 0.564317 0.615116
vt 0.564317 0.617283
vt 0.555648 0.000463
vt 0.467384 0.267422
vt 1.000000 0.361050
vt 0.977522 0.466214
vt 0.820348 -0.000000
vt 0.001991 0.020539
vt 0.085923 0.379768
vt 0.019707 0.421298
vt -0.000000 0.021422
vt 0.568720 0.605876
vt 0.566748 0.604976
vt 0.064203 0.751219
vt 0.000000 0.727783
vt 0.219499 0.297791
vt 0.286247 0.256978
vt 0.271511 0.530044
vt 0.205039 0.545370
vt 0.555648 0.019219
vt 0.622740 0.009612
vt 0.755061 0.028947
vt 0.689824 -0.000000
vt 0.152801 0.338583
vt 0.140317 0.559439
vt 0.077742 0.544986
vt 0.196080 0.749745
vt 0.128454 0.774356
vt 0.572651 0.607700
vt 0.570686 0.606788
vt 0.005966 0.018755
vt 0.003978 0.019647
vt 0.564317 0.610781
vt 0.564317 0.612948
vt 0.815611 0.465460
vt 0.574617 0.608613
vt 0.820348 0.585923
vt 0.555648 0.615116
vt 0.555648 0.617283
vt 0.546963 0.000000
vt 0.287025 0.257189
vt 0.828826 0.001812
vt 0.013213 0.529255
vt 0.555648 0.610781
vt 0.555648 0.612948
vt 0.007953 0.017860
vt 0.263575 0.724606
vt 0.820348 0.057896
vt 0.555648 0.608613
vt 0.564317 0.608613
vt 0.404344 0.671360
vt 0.818279 0.235941
vt 0.431883 0.494899
vn -0.075399 -0.018100 0.996989
vn -0.075399 -0.018100 0.996989
vn -0.075399 -0.018100 0.996989
vn -0.075399 -0.018100 0.996989
vn 0.211892 0.955466 0.205393
vn 0.214003 0.955315 0.203903
vn 0.189508 0.949438 0.250310
vn 0.187710 0.949952 0.249714
vn 0.000100 -0.999984 0.005700
vn 0.000100 -0.999979 0.006500
vn 0.000100 -0.999979 0.006500
vn 0.000200 -0.999984 0.005600
vn 0.170895 0.983273 0.062998
vn 0.154200 0.977401 -0.144600
vn 0.161093 0.986855 0.012899
vn 0.198808 0.968537 0.149706
vn 0.000600 -0.999981 0.006100
vn 0.000400 -0.999986 0.005300
vn 0.000400 -0.999986 0.005300
vn 0.000600 -0.999972 0.007400
vn -0.995101 0.071000 0.068800
vn -0.986717 0.153803 -0.052301
vn -0.972776 -0.016000 0.231194
vn -0.964195 -0.026200 0.263899
vn 0.134327 0.977121 -0.164895
vn 0.117800 0.987396 -0.105700
vn 0.157907 0.970441 -0.182508
vn -0.912892 -0.001700 0.408197
vn -0.912892 -0.001700 0.408197
vn -0.912892 -0.001700 0.408197
vn -0.912892 -0.001700 0.408197
vn 0.712465 -0.665267 -0.223189
vn 0.720581 -0.686282 -0.098897
vn 0.718999 -0.693399 -0.047300
vn 0.710704 -0.665003 -0.229501
vn 0.702289 -0.711789 0.012100
vn 0.679836 -0.733339 0.006100
vn 0.662195 -0.736194 0.139699
vn 0.679512 -0.719513 0.143403
vn 0.002300 -0.204301 0.978905
vn -0.023500 -0.029200 0.999297
vn -0.029601 -0.062301 0.997618
vn -0.091902 -0.035901 0.995121
vn -0.075298 -0.066098 0.994968
vn -0.435599 0.785498 -0.439599
vn -0.435599 0.785498 -0.439599
vn -0.807589 0.437294 -0.395695
vn -0.807589 0.437294 -0.395695
vn -0.912892 -0.001700 0.408197
vn -0.912892 -0.001700 0.408197
vn -0.912892 -0.001700 0.408197
vn -0.912892 -0.001700 0.408197
vn 0.001700 0.022801 -0.999739
vn -0.014099 0.022399 -0.999650
vn -0.048560 -0.048032 -0.997665
vn 0.712465 -0.665267 -0.223189
vn 0.710704 -0.665003 -0.229501
vn 0.709931 -0.665929 -0.229210
vn 0.711385 -0.666586 -0.222695
vn -0.912892 -0.001700 0.408197
vn -0.912892 -0.001700 0.408197
vn -0.912892 -0.001700 0.408197
vn -0.912892 -0.001700 0.408197
vn -0.965840 0.215109 -0.144506
vn -0.965840 0.215109 -0.144506
vn -0.986717 0.153803 -0.052301
vn -0.995101 0.071000 0.068800
vn 0.117800 0.987396 -0.105700
vn 0.161093 0.986855 0.012899
vn 0.154200 0.977401 -0.144600
vn 0.157907 0.970441 -0.182508
vn 0.000400 -0.999986 0.005300
vn 0.000100 -0.999984 0.005700
vn 0.000200 -0.999984 0.005600
vn 0.000400 -0.999986 0.005300
vn -0.912892 -0.001700 0.408197
vn -0.912892 -0.001700 0.408197
vn -0.912892 -0.001700 0.408197
vn -0.912892 -0.001700 0.408197
vn 0.702289 -0.711789 0.012100
vn 0.679512 -0.719513 0.143403
vn 0.718999 -0.693399 -0.047300
vn 0.720581 -0.686282 -0.098897
vn 0.000700 -0.999951 0.009900
vn 0.000600 -0.999981 0.006100
vn 0.000600 -0.999972 0.007400
vn 0.000700 -0.999951 0.009900
vn 0.211892 0.955466 0.205393
vn 0.187710 0.949952 0.249714
vn 0.170895 0.983273 0.062998
vn 0.198808 0.968537 0.149706
vn -0.964195 -0.026200 0.263899
vn -0.972776 -0.016000 0.231194
vn -0.942377 -0.047299 0.331192
vn -0.942377 -0.047299 0.331192
vn -0.007300 0.005400 -0.999959
vn -0.000600 0.009600 -0.999954
vn 0.090701 0.972015 -0.216703
s off
g _Mesh
usemtl initialShadingGroup
f 22/8/1 25/9/2 5/10/3 1/11/4
f 24/12/5 2/13/6 11/20/7 23/21/8
f 18/16/9 6/17/10 9/18/11 19/19/12
f 16/23/13 21/22/14 17/29/15 13/30/16
f 25/9/17 14/24/18 15/25/19 26/26/20
f 20/31/21 18/16/22 14/24/23 12/32/24
s 1
f 27/52/25 4/36/26 8/48/27
s off
f 24/33/28 13/34/29 12/45/30 22/44/31
f 21/27/32 16/28/33 15/25/34 19/19/35
f 23/14/36 11/15/37 10/43/38 26/26/39
f 10/6/40 11/37/41 2/7/42 1/42/43 5/5/44
f 4/3/45 7/4/46 6/41/47 3/40/48
f 17/1/49 4/2/50 3/39/51 20/38/52
s 2
f 8/51/53 9/18/54 27/53/55
s off
f 21/27/56 19/19/57 9/18/58 8/47/59
f 17/1/60 20/38/61 12/45/62 13/34/63
f 3/46/64 6/17/65 18/16/66 20/31/67
f 4/36/68 17/29/69 21/22/70 8/48/71
f 14/24/72 18/16/73 19/19/74 15/25/75
f 24/33/76 22/44/77 1/49/78 2/50/79
f 23/14/80 26/26/81 15/25/82 16/28/83
f 5/10/84 25/9/85 26/26/86 10/43/87
f 24/12/88 23/21/89 16/23/90 13/30/91
f 12/32/92 14/24/93 25/9/94 22/8/95
s 2
f 27/53/55 9/18/54 6/41/96 7/4/97
s 1
f 7/35/98 4/36/26 27/52/25
