# Blender 4.2.4 LTS
# www.blender.org
mtllib LightOfCameraSP.mtl
o Cube
v -14.830144 3.275306 -5.503644
v -14.830182 3.506546 -5.502754
v -14.924542 3.276103 -5.714739
v -14.924581 3.507343 -5.713848
v -10.643082 -3.403451 -5.358801
v -5.782510 1.432966 -5.358801
v -15.427193 -3.448162 -12.153015
v -11.163641 1.903676 -12.153015
v 0.251342 0.288401 -12.159431
v -3.300926 -3.448162 -12.278064
v -2.914764 -3.403451 -5.287403
v 1.083877 0.028623 -5.287403
v -14.877343 3.275704 -5.609191
v -14.877381 3.506944 -5.608301
v -15.271611 -3.425807 -7.702854
v -7.118991 2.170184 -7.256822
v -2.151444 -3.425807 -8.789965
v 1.812293 0.814609 -8.723778
v -8.091585 2.371268 -8.638063
v -14.830154 3.334057 -5.503418
v -14.924552 3.334854 -5.714512
v -13.774797 -0.172085 -12.153015
v -6.368339 -0.875658 -5.275559
v -1.748380 -1.815068 -12.226214
v -1.237071 -1.963470 -5.287403
v -0.727246 -1.902197 -8.766183
v -14.877353 3.334455 -5.608965
v -14.830168 3.420301 -5.503086
v 0.347561 -0.752365 -8.748236
v -14.877367 3.420700 -5.608633
v -14.924566 3.421098 -5.714180
v -13.068160 0.933525 -12.153015
v -5.932345 0.133359 -5.449510
v -0.710263 -0.723094 -12.191545
v 0.070430 -0.841229 -5.287403
v -14.924547 3.305479 -5.714625
v -14.524312 -1.810123 -12.153015
v -7.399262 -2.137871 -5.012545
v -2.849666 -2.973489 -12.262993
v -2.406799 -2.967459 -5.287403
v -14.830149 3.304681 -5.503531
v -1.772725 -3.020650 -8.783641
v -14.877348 3.305080 -5.609078
v -14.900981 3.507143 -5.661075
v -15.710428 -3.436984 -10.454462
v -2.726186 -3.436984 -10.534014
v -14.900943 3.275904 -5.661965
v -7.605289 2.349690 -7.947443
v 1.031817 0.551505 -10.441605
v -1.237813 -1.858633 -10.496199
v -14.900952 3.334655 -5.661739
v -0.181352 -0.737729 -10.469891
v -14.900967 3.420899 -5.661407
v -14.900948 3.305279 -5.661852
v -2.311195 -2.997070 -10.523317
v -14.853744 3.275505 -5.556418
v -6.450750 1.801575 -6.307812
v 1.448085 0.421616 -6.997055
v -14.853782 3.506745 -5.555527
v -14.539086 -3.414629 -5.602793
v -2.533105 -3.414629 -7.045915
v -14.853753 3.334256 -5.556191
v -0.982159 -1.932833 -7.027409
v -14.853767 3.420500 -5.555860
v 0.208995 -0.796797 -7.013280
v -2.089763 -2.994055 -7.040750
v -14.853748 3.304881 -5.556304
v -4.461291 1.088094 -12.156636
v -8.690248 2.269020 -9.488262
v -14.821081 3.487379 -5.758556
v -6.213046 -2.466444 -12.215060
v -4.881129 -0.022071 -12.175241
v -5.478518 -1.120082 -12.195251
v -6.753270 -3.448162 -12.218647
vn -0.9129 -0.0017 0.4082
vn -0.5874 0.6813 -0.4367
vn -0.4356 0.7855 -0.4396
vn -0.6342 0.6410 -0.4325
vn 0.0069 -0.0371 0.9993
vn -0.0753 -0.0661 0.9950
vn 0.0023 -0.2043 0.9789
vn 0.0314 -0.0032 0.9995
vn -0.0013 0.0362 0.9993
vn -0.0268 -0.0468 0.9985
vn -0.0296 -0.0623 0.9976
vn -0.0011 0.0158 0.9999
vn -0.0754 -0.0181 0.9970
vn 0.2002 0.9530 0.2273
vn 0.2119 0.9555 0.2054
vn 0.2140 0.9553 0.2039
vn 0.1967 0.9514 0.2369
vn 0.6941 -0.7189 0.0368
vn 0.7023 -0.7118 0.0121
vn 0.6798 -0.7333 0.0061
vn 0.6745 -0.7375 0.0344
vn 0.0001 -1.0000 0.0057
vn 0.0001 -1.0000 0.0065
vn 0.0002 -1.0000 0.0056
vn 0.1895 0.9494 0.2503
vn 0.1877 0.9499 0.2497
vn -0.0022 0.0104 -0.9999
vn -0.0006 0.0096 -1.0000
vn 0.0007 0.0171 -0.9999
vn -0.0007 0.0177 -0.9998
vn 0.1542 0.9774 -0.1446
vn 0.1627 0.9849 -0.0584
vn 0.1852 0.9783 0.0929
vn 0.1709 0.9833 0.0630
vn 0.0006 -1.0000 0.0061
vn 0.0004 -1.0000 0.0053
vn 0.0006 -1.0000 0.0074
vn 0.7119 -0.6655 -0.2243
vn 0.7125 -0.6653 -0.2232
vn 0.7206 -0.6863 -0.0989
vn 0.7194 -0.6883 -0.0933
vn 0.1611 0.9869 0.0129
vn 0.1988 0.9685 0.1497
vn -0.9951 0.0710 0.0688
vn -0.9867 0.1538 -0.0523
vn -0.9728 -0.0160 0.2312
vn -0.9642 -0.0262 0.2639
vn 0.0907 0.9720 -0.2167
vn 0.1094 0.9729 -0.2036
vn 0.1504 0.9682 -0.1997
vn 0.1178 0.9874 -0.1057
vn 0.1045 0.9854 -0.1341
vn 0.7110 -0.6650 -0.2287
vn 0.7114 -0.6652 -0.2267
vn 0.7190 -0.6915 -0.0701
vn 0.7194 -0.6928 -0.0500
vn -0.0066 0.0069 -1.0000
vn -0.0044 0.0098 -0.9999
vn -0.0041 0.0185 -0.9998
vn -0.0086 0.0161 -0.9998
vn 0.6842 -0.7180 0.1279
vn 0.6881 -0.7203 0.0872
vn 0.6684 -0.7388 0.0861
vn 0.6647 -0.7365 0.1253
vn 0.0359 0.1097 0.9933
vn 0.0469 0.1463 0.9881
vn 0.0090 0.1014 0.9948
vn 0.0134 0.0786 0.9968
vn -0.0166 0.0011 0.9999
vn -0.8394 0.3986 -0.3695
vn -0.8107 0.4389 -0.3874
vn -0.8278 0.4164 -0.3760
vn -0.8221 0.4202 -0.3841
vn -0.0235 -0.0292 0.9993
vn -0.8076 0.4373 -0.3957
vn -0.0919 -0.0359 0.9951
vn 0.6795 -0.7195 0.1434
vn 0.6622 -0.7362 0.1397
vn -0.0073 0.0054 -1.0000
vn -0.0096 0.0112 -0.9999
vn 0.7107 -0.6650 -0.2295
vn 0.7190 -0.6934 -0.0473
vn 0.7099 -0.6659 -0.2292
vn 0.7101 -0.6660 -0.2285
vn 0.7104 -0.6663 -0.2266
vn 0.7110 -0.6665 -0.2241
vn -0.9658 0.2151 -0.1445
vn 0.1359 0.9791 -0.1511
vn 0.7114 -0.6666 -0.2227
vn 0.1579 0.9704 -0.1825
vn 0.0007 -1.0000 0.0099
vn -0.9424 -0.0473 0.3312
vn 0.0017 0.0228 -0.9997
vn 0.0007 0.0238 -0.9997
vn -0.0030 0.0264 -0.9996
vn -0.0088 0.0258 -0.9996
vn -0.0141 0.0224 -0.9997
vt 0.561084 0.615116
vt 0.564317 0.615116
vt 0.564317 0.617283
vt 0.561084 0.617283
vt 0.552409 0.000290
vt 0.555648 0.000463
vt 0.467384 0.267422
vt 0.451553 0.266524
vt 0.932530 0.346629
vt 1.000000 0.361050
vt 0.977522 0.466214
vt 0.957555 0.481421
vt 0.852473 0.329517
vt 0.822678 0.323148
vt 0.820348 -0.000000
vt 0.823510 0.000676
vt 0.001991 0.020539
vt 0.085923 0.379768
vt 0.019707 0.421298
vt -0.000000 0.021422
vt 0.591874 0.309777
vt 0.568720 0.605876
vt 0.566748 0.604976
vt 0.555648 0.281976
vt 0.067951 0.685814
vt 0.064203 0.751219
vt 0.000000 0.727783
vt 0.002835 0.677393
vt 0.219499 0.297791
vt 0.286247 0.256978
vt 0.278893 0.400395
vt 0.271511 0.530044
vt 0.205039 0.545370
vt 0.555648 0.019219
vt 0.622740 0.009612
vt 0.431796 0.495394
vt 0.403573 0.477981
vt 0.755061 0.028947
vt 0.653949 0.355965
vt 0.628114 0.337585
vt 0.689824 -0.000000
vt 0.152801 0.338583
vt 0.140317 0.559439
vt 0.077742 0.544986
vt 0.199582 0.683153
vt 0.196080 0.749745
vt 0.128454 0.774356
vt 0.132843 0.693726
vt 0.572651 0.607700
vt 0.570686 0.606788
vt 0.005966 0.018755
vt 0.003978 0.019647
vt 0.561084 0.610781
vt 0.564317 0.610781
vt 0.564317 0.612948
vt 0.561084 0.612948
vt 0.815611 0.465460
vt 0.712630 0.396378
vt 0.818305 0.235478
vt 0.574617 0.608613
vt 0.576374 0.604697
vt 0.556749 0.610781
vt 0.557850 0.610781
vt 0.557850 0.612948
vt 0.556749 0.612948
vt 0.204515 0.567808
vt 0.202380 0.625648
vt 0.136077 0.635154
vt 0.139218 0.579332
vt 0.348531 0.260679
vt 0.410038 0.264170
vt 0.363606 0.453216
vt 0.314605 0.422771
vt 0.075814 0.567583
vt 0.071692 0.624281
vt 0.006777 0.612381
vt 0.011065 0.554320
vt 0.889817 0.337499
vt 0.826672 0.001352
vt 0.827749 0.001582
vt 0.911577 0.516439
vt 0.860183 0.555583
vt 0.548066 0.000059
vt 0.549170 0.000118
vt 0.556749 0.615116
vt 0.557850 0.615116
vt 0.557850 0.617283
vt 0.556749 0.617283
vt 0.820348 0.585923
vt 0.555648 0.615116
vt 0.555648 0.617283
vt 0.546963 0.000000
vt 0.287025 0.257189
vt 0.828826 0.001812
vt 0.013213 0.529255
vt 0.555648 0.610781
vt 0.555648 0.612948
vt 0.271080 0.554625
vt 0.269220 0.615011
vt 0.266510 0.671916
vt 0.007953 0.017860
vt 0.679777 0.374338
vt 0.263575 0.724606
vt 0.820348 0.057896
vt 0.555648 0.608613
vt 0.556749 0.608613
vt 0.557850 0.608613
vt 0.561084 0.608613
vt 0.564317 0.608613
vt 0.404344 0.671360
vt 0.368387 0.633104
vt 0.329569 0.591805
vt 0.288387 0.547994
s 1
usemtl Material
f 53/1/1 44/2/1 4/3/1 31/4/1
f 31/5/2 4/6/3 8/7/3 32/8/4
f 38/9/5 5/10/6 11/11/7 40/12/8
f 33/13/9 6/14/10 2/15/11 28/16/12
f 56/17/13 60/18/13 5/19/13 1/20/13
f 57/21/14 59/22/15 2/23/16 6/24/17
f 65/25/18 58/26/19 12/27/20 35/28/21
f 45/29/22 7/30/23 74/31/23 10/32/23 46/33/24
f 57/21/14 6/24/17 12/34/25 58/35/26
f 32/8/27 8/7/28 68/36/29 72/37/30
f 49/38/31 48/39/32 16/40/33 18/41/34
f 60/18/35 15/42/36 17/43/36 61/44/37
f 52/45/38 49/46/39 18/47/40 29/48/41
f 48/39/32 44/49/42 14/50/43 16/40/33
f 47/51/44 45/29/45 15/42/46 13/52/47
f 64/53/1 59/54/1 14/55/1 30/56/1
f 8/57/48 69/58/49 68/59/50
f 8/57/48 4/60/51 70/61/52 69/58/49
f 67/62/1 62/63/1 27/64/1 43/65/1
f 55/66/53 50/67/54 26/68/55 42/69/56
f 37/70/57 22/71/58 73/72/59 71/73/60
f 66/74/61 63/75/62 25/76/63 40/77/64
f 38/9/5 23/78/65 20/79/66 41/80/67
f 33/13/9 23/78/65 25/81/68 35/82/69
f 36/83/70 21/84/71 22/71/72 37/70/73
f 54/85/1 51/86/1 21/87/1 36/88/1
f 6/14/10 33/13/9 35/82/69 12/89/74
f 62/63/1 64/53/1 30/56/1 27/64/1
f 50/67/54 52/45/38 29/48/41 26/68/55
f 22/71/58 32/8/27 72/37/30 73/72/59
f 63/75/62 65/25/18 35/28/21 25/76/63
f 23/78/65 33/13/9 28/16/12 20/79/66
f 21/84/71 31/5/2 32/8/4 22/71/72
f 51/86/1 53/1/1 31/4/1 21/87/1
f 47/90/1 54/85/1 36/88/1 3/91/1
f 3/92/75 36/83/70 37/70/73 7/93/75
f 5/10/6 38/9/5 41/80/67 1/94/76
f 61/44/77 66/74/61 40/77/64 11/95/78
f 7/93/79 37/70/57 71/73/60 74/31/80
f 46/33/81 55/66/53 42/69/56 17/43/82
f 56/96/1 67/62/1 43/65/1 13/97/1
f 23/78/65 38/9/5 40/12/8 25/81/68
f 10/32/83 39/98/84 55/66/53 46/33/81
f 13/97/1 43/65/1 54/85/1 47/90/1
f 27/64/1 30/56/1 53/1/1 51/86/1
f 24/99/85 34/100/86 52/45/38 50/67/54
f 43/65/1 27/64/1 51/86/1 54/85/1
f 39/98/84 24/99/85 50/67/54 55/66/53
f 3/101/87 7/30/87 45/29/45 47/51/44
f 19/102/88 70/61/52 4/60/51 44/49/42 48/39/32
f 34/100/86 9/103/89 49/46/39 52/45/38
f 9/104/90 19/102/88 48/39/32 49/38/31
f 15/42/36 45/29/22 46/33/24 17/43/36
f 30/56/1 14/55/1 44/2/1 53/1/1
f 1/105/1 41/106/1 67/62/1 56/96/1
f 17/43/82 42/69/56 66/74/61 61/44/77
f 26/68/55 29/48/41 65/25/18 63/75/62
f 20/107/1 28/108/1 64/53/1 62/63/1
f 42/69/56 26/68/55 63/75/62 66/74/61
f 41/106/1 20/107/1 62/63/1 67/62/1
f 28/108/1 2/109/1 59/54/1 64/53/1
f 5/19/91 60/18/35 61/44/37 11/95/91
f 16/40/33 57/21/14 58/35/26 18/41/34
f 29/48/41 18/47/40 58/26/19 65/25/18
f 16/40/33 14/50/43 59/22/15 57/21/14
f 13/52/47 15/42/46 60/18/92 56/17/92
f 68/59/50 69/58/49 19/102/88 9/104/90
f 69/58/49 70/61/52 19/102/88
f 72/37/30 68/36/29 9/110/93 34/111/94
f 73/72/59 72/37/30 34/111/94 24/112/95
f 74/31/80 71/73/60 39/113/96 10/32/97
f 71/73/60 73/72/59 24/112/95 39/113/96
