# Blender 4.2.4 LTS
# www.blender.org
mtllib Camera2.mtl
o Cube.002
v -16.528589 2.986831 -19.320896
v -16.525295 3.218017 -19.317009
v -16.323355 2.982118 -19.214458
v -16.320061 3.213303 -19.210571
v -22.622705 -3.379462 -20.035063
v -22.527533 1.808660 -16.152100
v -16.013330 -3.485965 -18.595718
v -16.054699 1.517681 -10.206827
v -16.054316 0.139353 -2.336922
v -16.149488 -3.485966 -2.449244
v -22.573999 -3.365262 -2.514322
v -22.478825 0.104857 -2.402000
v -16.425972 2.984475 -19.267677
v -16.422678 3.215660 -19.263790
v -19.318018 -3.432714 -19.315390
v -18.759695 2.269022 -10.863031
v -21.771612 -3.425614 -2.481781
v -21.012945 0.801557 -2.369461
v -16.371368 3.214481 -19.237181
v -17.665674 -3.459339 -18.955555
v -17.555721 -3.465388 -2.460337
v -16.374662 2.983296 -19.241068
v -16.977354 1.926540 -9.525718
v -17.466167 0.932916 -2.353193
v -16.526941 3.102424 -19.318953
v -16.321707 3.097710 -19.212515
v -15.965744 -0.448039 -12.084841
v -22.575119 -0.346861 -18.093580
v -16.101904 -2.158818 -2.393082
v -22.526413 -2.236136 -2.458162
v -21.724024 -2.197477 -2.425623
v -16.424324 3.100067 -19.265734
v -17.508135 -2.171999 -2.404177
v -16.373016 3.098889 -19.239124
vn 0.4605 0.0084 -0.8876
vn 0.9983 0.0538 -0.0227
vn 0.9981 0.0592 -0.0192
vn 0.9997 0.0226 -0.0001
vn 0.9999 0.0111 -0.0052
vn -0.9998 0.0202 0.0046
vn -0.9998 0.0209 0.0041
vn -0.9998 0.0198 0.0048
vn -0.4748 0.5781 -0.6636
vn -0.3671 0.8952 -0.2529
vn -0.3356 0.9098 -0.2441
vn 0.2189 -0.0918 -0.9714
vn 0.2188 -0.0934 -0.9713
vn -0.1188 0.2200 -0.9682
vn -0.1232 0.2240 -0.9668
vn -0.1159 0.9862 0.1184
vn -0.0752 0.9929 0.0926
vn -0.0187 -0.0311 0.9993
vn -0.0105 -0.0172 0.9998
vn -0.0229 -0.0178 0.9996
vn -0.0325 -0.0326 0.9989
vn -0.0130 -0.9999 -0.0005
vn -0.0154 -0.9999 -0.0002
vn -0.0134 -0.9999 -0.0005
vn -0.3139 0.9438 0.1035
vn -0.1862 0.9743 0.1265
vn 0.9999 0.0057 0.0087
vn 0.9998 -0.0161 0.0085
vn 0.2608 0.9530 0.1540
vn 0.2473 0.9559 0.1584
vn -0.0274 -0.9996 -0.0013
vn -0.0197 -0.9998 -0.0010
vn -0.0200 -0.9998 -0.0011
vn -0.0082 -0.0308 0.9995
vn -0.0089 -0.0181 0.9998
vn 0.2291 0.9629 0.1426
vn 0.2190 -0.0868 -0.9719
vn 0.2190 -0.0872 -0.9718
vn 0.2191 -0.0847 -0.9720
vn 0.4732 0.8683 0.1489
vn 0.4663 0.8722 0.1475
vn -0.0116 -0.0308 0.9995
vn -0.0151 -0.0196 0.9997
vn 0.4864 0.8605 0.1515
vn -0.0080 -0.0425 0.9991
vn -0.0066 -0.0434 0.9990
vn -0.0231 -0.0451 0.9987
vn 0.9995 0.0236 -0.0192
vn 0.9994 -0.0342 0.0083
vn -0.0411 -0.0459 0.9981
vn -0.4213 0.4812 -0.7688
vn -0.9998 0.0187 0.0056
vn 0.9986 0.0441 -0.0289
vt 0.207113 0.682654
vt 0.207113 0.687123
vt 0.209347 0.687123
vt 0.209347 0.682654
vt 0.745191 0.000084
vt 0.740723 0.000169
vt 0.806521 0.348222
vt 0.882562 0.275658
vt 0.117150 0.075131
vt 0.000000 0.000000
vt 0.000000 0.677121
vt 0.043674 0.679335
vt 0.456189 0.013370
vt 0.490785 0.120515
vt 0.732960 0.003546
vt 0.730210 -0.000000
vt 0.708081 0.675198
vt 0.466908 0.801042
vt 0.477529 0.931334
vt 0.708634 0.679632
vt 0.632480 0.328159
vt 0.736823 0.005827
vt 0.788248 0.684844
vt 0.904454 0.711066
vt 0.876895 0.654700
vt 0.786385 0.653832
vt 0.264356 0.040622
vt 0.200411 0.054158
vt 0.202061 0.678186
vt 0.256415 0.678071
vt 0.467695 0.655450
vt 0.530546 0.656561
vt 0.859802 0.652432
vt 0.948656 0.650257
vt 0.699071 0.384112
vt 0.667729 0.662640
vt 0.456189 0.000000
vt 0.328301 0.027085
vt 0.419354 0.678186
vt 0.450458 0.677097
vt 0.790981 0.847744
vt 0.911009 0.848080
vt 0.738765 0.006941
vt 0.707823 0.672979
vt 0.461559 0.735899
vt 0.200411 0.682654
vt 0.200411 0.687122
vt 0.204879 0.687123
vt 0.204879 0.682654
vt 0.707586 0.670757
vt 0.456189 0.670757
vt 0.740723 0.362286
vt 0.740723 0.008017
vt 0.792078 0.902087
vt 0.880940 0.902983
vt 0.729799 0.670757
vt 0.204879 0.678186
vt 0.207113 0.678186
vt 0.740723 0.900787
vt 0.740929 0.846430
vt 0.200411 0.678186
vt 0.740723 0.683493
vt 1.000000 0.024083
vt 1.000000 0.648106
vt 0.742679 0.652432
vt 0.616664 0.934574
vt 0.713046 0.678922
vt 0.200411 0.150234
vt 0.134162 0.681583
vt 0.749659 -0.000000
vt 0.209347 0.678186
s 1
f 34/1/1 19/2/1 4/3/1 26/4/1
f 26/5/2 4/6/3 8/7/4 27/8/5
f 28/9/6 5/10/7 11/11/7 30/12/8
f 28/13/9 6/14/10 2/15/11 25/16/9
f 13/17/12 15/18/13 5/19/14 1/20/15
f 16/21/16 14/22/17 2/15/11 6/14/10
f 31/23/18 18/24/19 12/25/20 30/26/21
f 20/27/22 7/28/23 10/29/23 21/30/24
f 16/21/16 6/14/10 12/31/25 18/32/26
f 27/8/5 8/7/4 9/33/27 29/34/28
f 23/35/29 16/21/16 18/32/26 24/36/30
f 5/37/31 15/38/32 17/39/33 11/40/31
f 33/41/34 24/42/35 18/24/19 31/23/18
f 23/35/29 19/43/36 14/22/17 16/21/16
f 22/44/37 20/45/38 15/18/13 13/17/12
f 25/46/1 2/47/1 14/48/1 32/49/1
f 3/50/39 7/51/39 20/45/38 22/44/37
f 8/52/40 4/53/41 19/43/36 23/35/29
f 29/54/42 9/55/43 24/42/35 33/41/34
f 8/52/40 23/35/29 24/36/30 9/56/44
f 15/38/32 20/27/22 21/30/24 17/39/33
f 32/49/1 14/48/1 19/2/1 34/1/1
f 13/57/1 32/49/1 34/1/1 22/58/1
f 10/59/45 29/54/42 33/41/34 21/60/46
f 1/61/1 25/46/1 32/49/1 13/57/1
f 21/60/46 33/41/34 31/23/18 17/62/47
f 7/63/48 27/8/5 29/34/28 10/64/49
f 17/62/47 31/23/18 30/26/21 11/65/50
f 5/19/14 28/66/51 25/67/51 1/20/15
f 6/68/52 28/9/6 30/12/8 12/69/52
f 3/70/53 26/5/2 27/8/5 7/63/48
f 22/58/1 34/1/1 26/4/1 3/71/1
