# Blender 4.2.4 LTS
# www.blender.org
mtllib Camera 3.mtl.mtl
o Cube.003
v -16.257084 2.696961 19.647932
v -16.260376 2.928146 19.644045
v -16.462318 2.692247 19.696316
v -16.465611 2.923432 19.692429
v -15.923868 -3.379461 18.570602
v -16.342360 1.178267 10.563110
v -22.533243 -3.485965 18.403158
v -22.587900 1.304563 18.296070
v -22.735302 -0.402537 1.224602
v -22.639347 -3.485965 1.336926
v -15.972576 -3.365262 1.402002
v -16.351862 -0.607499 1.482384
v -16.359699 2.694604 19.672123
v -16.362993 2.925789 19.668236
v -19.228556 -3.432714 18.486879
v -16.969893 1.930757 12.323689
v -17.532478 -3.425614 1.369465
v -17.627649 0.258071 1.257145
v -16.414303 2.924611 19.680332
v -20.880899 -3.459339 18.445019
v -21.857306 -3.475825 1.342392
v -16.411009 2.693426 19.684219
v -18.381207 2.006822 13.587335
v -21.503363 0.291280 1.230070
vn 0.1088 -0.0847 0.9904
vn 0.2290 0.0196 0.9732
vn 0.0209 0.0198 0.9996
vn -0.0339 -0.0593 0.9977
vn -0.2269 0.0189 0.9737
vn -0.1232 -0.0850 0.9887
vn 0.9959 0.0893 -0.0111
vn 0.9975 0.0691 -0.0159
vn 0.9951 0.0989 -0.0089
vn 0.7608 0.0475 0.6473
vn 0.7265 -0.0215 0.6868
vn 0.1088 -0.0821 0.9907
vn -0.0142 -0.1834 0.9829
vn -0.0143 -0.1794 0.9837
vn 0.2407 0.9580 -0.1561
vn 0.1931 0.9695 -0.1509
vn 0.4829 0.8602 -0.1640
vn 0.5530 0.8179 -0.1588
vn 0.0489 -0.0143 -0.9987
vn 0.0381 -0.0184 -0.9991
vn 0.0910 0.0018 -0.9958
vn 0.0139 -0.9999 0.0003
vn 0.0151 -0.9999 -0.0000
vn 0.0140 -0.9999 0.0003
vn 0.5625 0.8116 -0.1579
vn 0.2716 0.9496 -0.1563
vn -0.9998 -0.0189 0.0084
vn -0.1688 0.9801 -0.1040
vn -0.1879 0.9766 -0.1042
vn 0.0233 -0.9997 0.0005
vn 0.0178 -0.9998 0.0005
vn 0.0184 -0.9998 0.0005
vn 0.0122 -0.0320 -0.9994
vn 0.0105 -0.0315 -0.9994
vn -0.1461 0.9840 -0.1018
vn -0.0141 -0.1884 0.9820
vn -0.2682 0.9606 -0.0729
vn -0.2383 0.9686 -0.0706
vn 0.0171 -0.0334 -0.9993
vn -0.3090 0.9480 -0.0759
vt 0.009342 0.252275
vt 0.000023 0.252478
vt 0.000000 0.250346
vt 0.009279 0.250156
vt 0.065015 0.000000
vt 0.261228 0.006005
vt 0.073689 0.625327
vt 0.255758 0.300058
vt 0.261228 0.993912
vt 0.148697 0.991758
vt 0.000101 0.258867
vt 0.009443 0.258636
vt 0.009387 0.254397
vt 0.258842 0.139462
vt 0.256494 0.271656
vt 0.505458 0.299841
vt 0.533349 0.001003
vt 0.537486 0.002005
vt 0.535849 0.375249
vt 0.806601 0.898937
vt 0.955372 0.896825
vt 0.919591 0.948534
vt 0.808000 0.961938
vt 0.737556 0.005628
vt 0.804246 0.007504
vt 0.806601 0.696281
vt 0.775037 0.695972
vt 0.537486 0.748697
vt 0.474664 0.751204
vt 0.806601 0.000000
vt 1.000000 -0.000000
vt 0.946590 0.690378
vt 0.822018 0.688608
vt 0.448912 0.248271
vt 0.318226 0.750597
vt 0.537487 0.000000
vt 0.670866 0.003752
vt 0.600485 0.694392
vt 0.537487 0.692902
vt 0.806637 0.724378
vt 0.958563 0.740430
vt 0.531281 0.000501
vt 0.260081 0.073326
vt 0.000048 0.254606
vt 0.274713 0.060110
vt 0.529214 0.000000
vt 0.806601 0.692813
vt 0.931162 0.690377
vt 0.261228 0.752312
s 1
f 22/1/1 19/2/2 4/3/3 3/4/4
f 3/4/4 4/3/3 8/5/5 7/6/6
f 6/7/7 5/8/8 11/9/9 12/10/9
f 5/8/8 6/7/7 2/11/10 1/12/11
f 13/13/12 15/14/13 5/15/14 1/12/11
f 16/16/15 14/17/16 2/18/17 6/19/18
f 17/20/19 18/21/20 12/22/21 11/23/21
f 20/24/22 7/25/23 10/26/23 21/27/24
f 16/16/15 6/19/18 12/28/25 18/29/26
f 7/30/27 8/31/27 9/32/27 10/33/27
f 23/34/28 16/16/15 18/29/26 24/35/29
f 5/36/30 15/37/31 17/38/32 11/39/30
f 21/40/33 24/41/34 18/21/20 17/20/19
f 23/34/28 19/42/35 14/17/16 16/16/15
f 22/1/1 20/43/36 15/14/13 13/13/12
f 1/12/11 2/11/10 14/44/2 13/13/12
f 3/4/4 7/6/6 20/43/36 22/1/1
f 8/45/37 4/46/38 19/42/35 23/34/28
f 10/47/39 9/48/39 24/41/34 21/40/33
f 8/45/37 23/34/28 24/35/29 9/49/40
f 15/37/31 20/24/22 21/27/24 17/38/32
f 13/13/12 14/44/2 19/2/2 22/1/1
